<?xml version="1.0" standalone="no"?><svg xmlns="http://www.w3.org/2000/svg" viewBox="0 0 1440 320"><path fill="#D5D3EE" fill-opacity="1" d="M0,64L34.3,69.3C68.6,75,137,85,206,112C274.3,139,343,181,411,197.3C480,213,549,203,617,202.7C685.7,203,754,213,823,229.3C891.4,245,960,267,1029,240C1097.1,213,1166,139,1234,117.3C1302.9,96,1371,128,1406,144L1440,160L1440,0L1405.7,0C1371.4,0,1303,0,1234,0C1165.7,0,1097,0,1029,0C960,0,891,0,823,0C754.3,0,686,0,617,0C548.6,0,480,0,411,0C342.9,0,274,0,206,0C137.1,0,69,0,34,0L0,0Z"></path></svg>