<?xml version="1.0" encoding="UTF-8"?>
<svg width="89.264mm" height="10.774mm" version="1.1" viewBox="0 0 89.264 10.774" xmlns="http://www.w3.org/2000/svg" xmlns:cc="http://creativecommons.org/ns#" xmlns:dc="http://purl.org/dc/elements/1.1/" xmlns:rdf="http://www.w3.org/1999/02/22-rdf-syntax-ns#" xmlns:xlink="http://www.w3.org/1999/xlink">
 <metadata>
  <rdf:RDF>
   <cc:Work rdf:about="">
    <dc:format>image/svg+xml</dc:format>
    <dc:type rdf:resource="http://purl.org/dc/dcmitype/StillImage"/>
    <dc:title/>
   </cc:Work>
  </rdf:RDF>
 </metadata>
 <g transform="translate(-100.65 -122.31)">
  <g>
   <g fill="#082235" stroke-width=".28259" style="font-variant-caps:normal;font-variant-east-asian:normal;font-variant-ligatures:normal;font-variant-numeric:normal" aria-label="Bundle Squad">
    <path d="m110.11 130.79h2.9308q0.66232 0 1.1922-0.14902t0.89965-0.44707q0.3698-0.29804 0.56849-0.73959 0.1987-0.44154 0.1987-1.0211 0-0.30357-0.0828-0.58505-0.0773-0.28701-0.24285-0.52986-0.16006-0.22629-0.39739-0.39739-0.23182-0.1711-0.62921-0.28149v-6e-3q0.20422-0.0773 0.3698-0.18766 0.1711-0.11038 0.30356-0.24285 0.24285-0.24285 0.36428-0.56297 0.12694-0.32564 0.13246-0.68992 0-0.56297-0.20973-0.97692-0.20422-0.41395-0.58505-0.6844-0.38084-0.27044-0.92173-0.40291-0.53538-0.13246-1.1922-0.13246h-2.699zm1.5564-3.5434h1.4461q0.32565 6e-3 0.56298 0.0883 0.23733 0.0828 0.38635 0.23733 0.14902 0.14902 0.21525 0.36427 0.0718 0.21526 0.0718 0.48571 0 0.25941-0.0938 0.46914-0.0883 0.20973-0.26493 0.35876-0.16006 0.13246-0.40291 0.20973-0.23733 0.0773-0.5409 0.0773h-1.3798zm0-1.1204v-2.1084h1.148q0.37532 6e-3 0.65128 0.0828 0.28149 0.0773 0.44707 0.24837 0.12694 0.12142 0.18766 0.30356 0.0662 0.18214 0.0662 0.42499 0 0.23181-0.0773 0.41395-0.0718 0.18214-0.20974 0.30908-0.16558 0.16006-0.43603 0.24285-0.27044 0.0773-0.62368 0.0828z" style="font-variant-caps:normal;font-variant-east-asian:normal;font-variant-ligatures:normal;font-variant-numeric:normal"/>
    <path d="m120.86 130.79h1.3909v-5.9719h-1.5399v4.1892q-0.0717 0.1435-0.1711 0.2594-0.0994 0.11591-0.22629 0.1987-0.14902 0.0938-0.34772 0.1435-0.19318 0.0497-0.43603 0.0497-0.27044 0-0.4581-0.0662t-0.30356-0.22078q-0.11591-0.14902-0.1711-0.39739-0.0497-0.24837-0.0497-0.61265v-3.5434h-1.5344v3.5324q0 0.67887 0.14902 1.1646 0.15454 0.48019 0.43051 0.78927 0.27596 0.3146 0.66232 0.4581 0.38635 0.14351 0.84998 0.14351 0.50777 0 0.93276-0.25389 0.43051-0.25389 0.73407-0.70096z" style="font-variant-caps:normal;font-variant-east-asian:normal;font-variant-ligatures:normal;font-variant-numeric:normal"/>
    <path d="m123.74 130.79h1.5399v-4.2444q0.0773-0.12142 0.1711-0.22077 0.0938-0.0994 0.20974-0.1711 0.1435-0.0994 0.32564-0.14902 0.18765-0.0497 0.40843-0.0497 0.26493 0 0.47466 0.0552 0.20974 0.0497 0.35876 0.18213 0.14902 0.13247 0.22629 0.36428 0.0828 0.22629 0.0828 0.57953v3.6538h1.5344v-3.6759q0-0.65128-0.15455-1.1039-0.14902-0.45811-0.41946-0.75063-0.27597-0.28701-0.65129-0.41947-0.37531-0.13247-0.8279-0.13247-0.35323 0-0.66784 0.0994-0.3146 0.0994-0.57953 0.28701-0.15454 0.11038-0.29252 0.24837-0.13799 0.13798-0.25389 0.30356l-0.0938-0.8279h-1.3909z" style="font-variant-caps:normal;font-variant-east-asian:normal;font-variant-ligatures:normal;font-variant-numeric:normal"/>
    <path d="m130.35 127.76v0.1159q0 0.65128 0.16006 1.2087 0.16006 0.55193 0.46363 0.95484 0.29804 0.40291 0.72855 0.63473 0.43603 0.22629 0.98244 0.22629 0.50226 0 0.88309-0.19318 0.38084-0.19318 0.66233-0.54089l0.0773 0.62368h1.3854v-8.4777h-1.5399v3.0412q-0.27596-0.30909-0.63472-0.47467-0.35324-0.1711-0.82238-0.1711-0.55745 0-0.99348 0.22078-0.43051 0.22077-0.73407 0.62368-0.30357 0.40291-0.46363 0.96589-0.15454 0.56297-0.15454 1.2418zm1.5344 0.1159v-0.1159q0-0.37532 0.0662-0.70096 0.0662-0.33116 0.20973-0.57953 0.14351-0.24285 0.3698-0.38083 0.23181-0.14351 0.55745-0.14351 0.39188 0 0.65128 0.1711 0.25941 0.16558 0.41395 0.46915v2.4175q-0.15454 0.29804-0.41946 0.46914-0.25941 0.1711-0.65681 0.1711-0.32564 0-0.55193-0.13799-0.22629-0.13798-0.3698-0.38083-0.1435-0.23733-0.20973-0.55745-0.0607-0.32564-0.0607-0.70096z" style="font-variant-caps:normal;font-variant-east-asian:normal;font-variant-ligatures:normal;font-variant-numeric:normal"/>
    <path d="m137.61 122.31v1.2529h1.7883v5.9774h-1.7883v1.2474h5.0502v-1.2474h-1.711v-7.2303z" style="font-variant-caps:normal;font-variant-east-asian:normal;font-variant-ligatures:normal;font-variant-numeric:normal"/>
    <path d="m146.97 130.9q0.86654 0 1.5013-0.33668 0.63473-0.33668 0.92725-0.75063l-0.76719-0.8279q-0.26492 0.3422-0.68991 0.5133t-0.87758 0.1711q-0.32012 0-0.59057-0.0993-0.27044-0.0994-0.48018-0.28149-0.20421-0.17662-0.32564-0.39187-0.12142-0.22077-0.19869-0.57953v-0.0166h4.0512v-0.65128q0-0.6568-0.18214-1.1977-0.18214-0.54641-0.52986-0.93276-0.35323-0.38636-0.86101-0.59609-0.50226-0.21526-1.148-0.21526-0.62369 0-1.1536 0.2263-0.52985 0.22629-0.91621 0.63472-0.38635 0.40843-0.6016 0.97692-0.21526 0.56297-0.21526 1.2474v0.22078q0 0.6016 0.21526 1.1315 0.22077 0.52434 0.62368 0.91069 0.40291 0.39187 0.96589 0.61817 0.56297 0.22629 1.2529 0.22629zm-0.18213-4.9508q0.29252 0 0.51329 0.0938 0.2263 0.0883 0.38084 0.24285 0.15454 0.16006 0.24285 0.37532 0.0883 0.21525 0.0883 0.4581v0.12143h-2.5168q0.0552-0.29253 0.16558-0.52986 0.11039-0.23733 0.27597-0.40843 0.16006-0.1711 0.37531-0.25941 0.21526-0.0938 0.47467-0.0938z" style="font-variant-caps:normal;font-variant-east-asian:normal;font-variant-ligatures:normal;font-variant-numeric:normal"/>
    <path d="m161.74 128.69q0 0.21526-0.0883 0.3974-0.0883 0.17661-0.25389 0.30356-0.16558 0.12694-0.40843 0.1987-0.23733 0.0718-0.54642 0.0718-0.34772 0-0.64024-0.0773-0.28701-0.0773-0.49122-0.24285-0.20974-0.16558-0.32564-0.42499-0.11591-0.25941-0.12695-0.62369h-1.5233q0 0.62369 0.23733 1.0873 0.24285 0.46363 0.6568 0.80582 0.43603 0.34772 1.0211 0.52986 0.59056 0.17662 1.1922 0.17662 0.61265 0 1.1315-0.1435 0.51881-0.14903 0.89413-0.43603 0.37531-0.28149 0.58505-0.68992 0.21525-0.41395 0.21525-0.9438 0-0.61265-0.28148-1.0818-0.28149-0.46915-0.75615-0.82239-0.3146-0.21525-0.68992-0.38083-0.37531-0.16558-0.78926-0.28149-0.38636-0.10486-0.69544-0.22629-0.30356-0.12142-0.51882-0.27045-0.21525-0.1435-0.33116-0.32564-0.11039-0.18214-0.11039-0.40843 0-0.21525 0.0828-0.39739 0.0883-0.18766 0.25389-0.32564 0.16558-0.13247 0.40292-0.20422 0.24285-0.0773 0.55193-0.0773 0.33668 0 0.58505 0.0938 0.25389 0.0883 0.42499 0.24837 0.16558 0.16558 0.24837 0.39187 0.0883 0.2263 0.0993 0.49674h1.5123q0-0.54089-0.20973-0.99348-0.20974-0.45258-0.58505-0.78374-0.37532-0.32564-0.89965-0.50778-0.51882-0.18214-1.148-0.18214-0.60713 0-1.126 0.16006-0.51882 0.15454-0.89965 0.44707-0.38083 0.29252-0.59609 0.70647-0.21525 0.41395-0.21525 0.92173 0 0.44155 0.16006 0.81686 0.16558 0.37532 0.4857 0.6844t0.82238 0.56849q0.50778 0.25941 1.1756 0.44155 0.43051 0.11591 0.71751 0.25389 0.29253 0.13246 0.47467 0.29252 0.17661 0.16558 0.24837 0.35324 0.0773 0.18766 0.0773 0.40291z" style="font-variant-caps:normal;font-variant-east-asian:normal;font-variant-ligatures:normal;font-variant-numeric:normal"/>
    <path d="m164.25 127.76v0.1159q0 0.65128 0.15455 1.2087 0.16006 0.55193 0.4581 0.95484 0.29805 0.40843 0.73407 0.64025 0.43603 0.22629 0.999 0.22629 0.26493 0 0.49122-0.0552 0.23182-0.0497 0.42499-0.1435 0.14902-0.0773 0.28701-0.18214 0.13798-0.10486 0.25389-0.23733v2.8038h1.5399v-8.268h-1.3522l-0.0938 0.60713q-0.11591-0.14351-0.24837-0.25941-0.13247-0.11591-0.28149-0.20422-0.20974-0.12142-0.46362-0.18765-0.24837-0.0662-0.54642-0.0662-0.56849 0-1.01 0.22078-0.43602 0.22077-0.73407 0.61816-0.30356 0.40291-0.4581 0.96589-0.15455 0.56297-0.15455 1.2418zm1.5344 0.1159v-0.1159q0-0.38084 0.0662-0.70648 0.0718-0.33116 0.22078-0.57401 0.1435-0.24285 0.36979-0.38083 0.23181-0.14351 0.55745-0.14351 0.19318 0 0.35324 0.0386 0.16558 0.0386 0.29253 0.11039 0.13246 0.0773 0.23181 0.18765 0.0994 0.10487 0.17662 0.24285v2.5389q-0.0773 0.1435-0.17662 0.25941-0.0993 0.11038-0.23181 0.18765-0.13247 0.0718-0.29805 0.11591-0.16006 0.0386-0.35875 0.0386-0.32565 0-0.55746-0.14351-0.22629-0.1435-0.36979-0.39187-0.14351-0.24285-0.20974-0.56849-0.0662-0.32564-0.0662-0.69544z" style="font-variant-caps:normal;font-variant-east-asian:normal;font-variant-ligatures:normal;font-variant-numeric:normal"/>
    <path d="m175.08 130.79h1.3909v-5.9719h-1.5399v4.1892q-0.0717 0.1435-0.1711 0.2594-0.0993 0.11591-0.22629 0.1987-0.14902 0.0938-0.34772 0.1435-0.19318 0.0497-0.43603 0.0497-0.27045 0-0.4581-0.0662-0.18766-0.0662-0.30357-0.22078-0.1159-0.14902-0.1711-0.39739-0.0497-0.24837-0.0497-0.61265v-3.5434h-1.5344v3.5324q0 0.67887 0.14903 1.1646 0.15454 0.48019 0.4305 0.78927 0.27597 0.3146 0.66233 0.4581 0.38635 0.14351 0.84997 0.14351 0.50778 0 0.93277-0.25389 0.43051-0.25389 0.73407-0.70096z" style="font-variant-caps:normal;font-variant-east-asian:normal;font-variant-ligatures:normal;font-variant-numeric:normal"/>
    <path d="m181.69 130.79h1.5564v-0.0938q-0.1159-0.22629-0.17662-0.54089-0.0607-0.3146-0.0607-0.79479v-2.561q0-0.51882-0.19318-0.91069-0.19317-0.39739-0.53537-0.6568t-0.81134-0.39187q-0.46363-0.13247-1.0045-0.13247-0.60161 0-1.0708 0.15454-0.46363 0.14903-0.78375 0.40844-0.32564 0.2594-0.49674 0.6016-0.16558 0.3422-0.16558 0.72304h1.5344q0-0.16006 0.0442-0.29253 0.0497-0.13246 0.14902-0.22629 0.11039-0.10487 0.28701-0.16006 0.17662-0.0607 0.41947-0.0607 0.27596 0 0.48018 0.0718 0.20973 0.0662 0.34772 0.19317 0.13246 0.12143 0.19869 0.29253 0.0662 0.16558 0.0662 0.37531v0.35324h-0.8555q-0.66232 0-1.1756 0.12143-0.50778 0.1159-0.8555 0.34219-0.38635 0.24837-0.57953 0.63473-0.19317 0.38083-0.19317 0.87757 0 0.38636 0.15454 0.71752 0.15454 0.32564 0.43051 0.56297 0.27596 0.23733 0.6568 0.36979 0.38635 0.13247 0.84445 0.13247 0.28149 0 0.52434-0.0552 0.24285-0.0497 0.44707-0.1435 0.19869-0.0883 0.36427-0.20973t0.29253-0.25941q0.0276 0.16006 0.0662 0.30356t0.0938 0.25389zm-1.4626-1.0763q-0.21526 0-0.38084-0.0497-0.16006-0.0552-0.27045-0.14351-0.11038-0.0938-0.1711-0.22629-0.0552-0.13798-0.0552-0.29804 0-0.20422 0.0773-0.37532 0.0773-0.17662 0.23733-0.30356 0.16006-0.12143 0.41395-0.18766 0.25389-0.0718 0.61265-0.0718h0.78375v1.0266q-0.0662 0.1159-0.18214 0.23181-0.11591 0.11039-0.27597 0.19869t-0.35876 0.14351q-0.19869 0.0552-0.4305 0.0552z" style="font-variant-caps:normal;font-variant-east-asian:normal;font-variant-ligatures:normal;font-variant-numeric:normal"/>
    <path d="m184.58 127.76v0.1159q0 0.65128 0.16006 1.2087 0.16006 0.55193 0.46362 0.95484 0.29805 0.40291 0.72856 0.63473 0.43602 0.22629 0.98244 0.22629 0.50226 0 0.88309-0.19318 0.38084-0.19318 0.66232-0.54089l0.0773 0.62368h1.3854v-8.4777h-1.5399v3.0412q-0.27597-0.30909-0.63472-0.47467-0.35324-0.1711-0.82238-0.1711-0.55746 0-0.99348 0.22078-0.43051 0.22077-0.73408 0.62368-0.30356 0.40291-0.46362 0.96589-0.15454 0.56297-0.15454 1.2418zm1.5344 0.1159v-0.1159q0-0.37532 0.0662-0.70096 0.0662-0.33116 0.20973-0.57953 0.1435-0.24285 0.3698-0.38083 0.23181-0.14351 0.55745-0.14351 0.39187 0 0.65128 0.1711 0.25941 0.16558 0.41395 0.46915v2.4175q-0.15454 0.29804-0.41947 0.46914-0.25941 0.1711-0.6568 0.1711-0.32564 0-0.55193-0.13799-0.2263-0.13798-0.3698-0.38083-0.1435-0.23733-0.20973-0.55745-0.0607-0.32564-0.0607-0.70096z" style="font-variant-caps:normal;font-variant-east-asian:normal;font-variant-ligatures:normal;font-variant-numeric:normal"/>
   </g>
   <rect x="100.65" y="126.58" width="7.7017" height=".9661" fill="#ffb41f" stroke-width=".085494"/>
  </g>
 </g>
</svg>
