<?xml version="1.0" encoding="UTF-8" standalone="no"?>
<svg
   xmlns:dc="http://purl.org/dc/elements/1.1/"
   xmlns:cc="http://creativecommons.org/ns#"
   xmlns:rdf="http://www.w3.org/1999/02/22-rdf-syntax-ns#"
   xmlns:svg="http://www.w3.org/2000/svg"
   xmlns="http://www.w3.org/2000/svg"
   xmlns:xlink="http://www.w3.org/1999/xlink"
   xmlns:sodipodi="http://sodipodi.sourceforge.net/DTD/sodipodi-0.dtd"
   xmlns:inkscape="http://www.inkscape.org/namespaces/inkscape"
   width="210mm"
   height="297mm"
   viewBox="0 0 210 297"
   version="1.1"
   id="svg8"
   inkscape:version="1.0.1 (3bc2e813f5, 2020-09-07)"
   sodipodi:docname="logo2.svg">
  <defs
     id="defs2">
    <linearGradient
       inkscape:collect="always"
       id="linearGradient18">
      <stop
         style="stop-color:#000000;stop-opacity:1;"
         offset="0"
         id="stop14" />
      <stop
         style="stop-color:#000000;stop-opacity:0;"
         offset="1"
         id="stop16" />
    </linearGradient>
    <linearGradient
       inkscape:collect="always"
       xlink:href="#linearGradient18"
       id="linearGradient20"
       x1="-64.376701"
       y1="-66.091133"
       x2="276.76697"
       y2="-140.78598"
       gradientUnits="userSpaceOnUse"
       spreadMethod="pad" />
  </defs>
  <sodipodi:namedview
     id="base"
     pagecolor="#ffffff"
     bordercolor="#666666"
     borderopacity="1.0"
     inkscape:pageopacity="0.0"
     inkscape:pageshadow="2"
     inkscape:zoom="1.1595232"
     inkscape:cx="373.65836"
     inkscape:cy="462.29952"
     inkscape:document-units="mm"
     inkscape:current-layer="g849"
     inkscape:document-rotation="0"
     showgrid="false"
     inkscape:window-width="1920"
     inkscape:window-height="1016"
     inkscape:window-x="0"
     inkscape:window-y="27"
     inkscape:window-maximized="1" />
  <metadata
     id="metadata5">
    <rdf:RDF>
      <cc:Work
         rdf:about="">
        <dc:format>image/svg+xml</dc:format>
        <dc:type
           rdf:resource="http://purl.org/dc/dcmitype/StillImage" />
        <dc:title></dc:title>
      </cc:Work>
    </rdf:RDF>
  </metadata>
  <g
     inkscape:label="Layer 1"
     inkscape:groupmode="layer"
     id="layer1">
    <g
       id="g849">
      <g
         aria-label="Bundle"
         id="text187"
         style="font-style:normal;font-variant:normal;font-weight:normal;font-stretch:normal;font-size:34.9819px;line-height:1.25;font-family:'Roboto Mono', '@wght=700', '@wght=700', '@wght=688';-inkscape-font-specification:'Roboto Mono, @wght=700, @wght=700, @wght=688';font-variant-ligatures:normal;font-variant-caps:normal;font-variant-numeric:normal;font-variant-east-asian:normal;stroke-width:0.874552" />
      <g
         id="g915">
        <path
           d="m 59.254643,137.9693 h 9.070014 q 2.049721,0 3.689497,-0.46119 1.639777,-0.46118 2.784204,-1.38356 1.144427,-0.92237 1.759344,-2.28885 0.614916,-1.36648 0.614916,-3.15999 0,-0.93946 -0.256215,-1.81059 -0.239134,-0.88821 -0.751565,-1.63977 -0.495349,-0.70032 -1.229832,-1.22984 -0.717402,-0.52951 -1.947235,-0.87113 v -0.0171 q 0.631998,-0.23913 1.144428,-0.58075 0.529511,-0.34162 0.939455,-0.75157 0.751564,-0.75156 1.127346,-1.74226 0.392864,-1.00778 0.409945,-2.13512 0,-1.74227 -0.649079,-3.02334 -0.631997,-1.28108 -1.810586,-2.11805 -1.17859,-0.83697 -2.852528,-1.24691 -1.656858,-0.40994 -3.689497,-0.40994 h -8.352612 z m 4.816843,-10.96601 h 4.475224 q 1.007779,0.0171 1.742262,0.2733 0.734484,0.25621 1.195671,0.73448 0.461187,0.46119 0.666159,1.12735 0.222053,0.66616 0.222053,1.50313 0,0.80281 -0.290377,1.45188 -0.273296,0.64908 -0.819888,1.11027 -0.495349,0.40994 -1.246914,0.64908 -0.734483,0.23913 -1.673938,0.23913 h -4.270252 z m 0,-3.46744 v -6.52494 h 3.55285 q 1.161508,0.0171 2.015558,0.25621 0.871132,0.23913 1.383562,0.76865 0.392863,0.37578 0.580754,0.93945 0.204972,0.56367 0.204972,1.31524 0,0.7174 -0.239134,1.28107 -0.222053,0.56368 -0.649078,0.95654 -0.51243,0.49535 -1.3494,0.75156 -0.836969,0.23914 -1.930153,0.25622 z"
           style="font-style:normal;font-variant:normal;font-weight:bold;font-stretch:normal;font-size:34.9819px;line-height:1.25;font-family:'Roboto Mono';-inkscape-font-specification:'Roboto Mono Bold';font-variant-ligatures:normal;font-variant-caps:normal;font-variant-numeric:normal;font-variant-east-asian:normal;stroke-width:0.874552;fill:#082235;fill-opacity:1"
           id="path889" />
        <path
           d="m 92.49428,137.9693 h 4.304414 v -18.48165 h -4.765601 v 12.96448 q -0.222053,0.44411 -0.529511,0.80281 -0.307458,0.3587 -0.700321,0.61492 -0.461187,0.29038 -1.076104,0.4441 -0.597835,0.15373 -1.349399,0.15373 -0.836969,0 -1.417724,-0.20497 -0.580754,-0.20497 -0.939455,-0.68324 -0.358701,-0.46119 -0.529511,-1.22983 -0.153729,-0.76865 -0.153729,-1.89599 v -10.96601 h -4.74852 v 10.93184 q 0,2.10097 0.461188,3.6041 0.478268,1.48604 1.332318,2.44258 0.85405,0.97362 2.049721,1.41772 1.19567,0.44411 2.630474,0.44411 1.571453,0 2.88669,-0.78573 1.332319,-0.78572 2.271774,-2.16928 z"
           style="font-style:normal;font-variant:normal;font-weight:bold;font-stretch:normal;font-size:34.9819px;line-height:1.25;font-family:'Roboto Mono';-inkscape-font-specification:'Roboto Mono Bold';font-variant-ligatures:normal;font-variant-caps:normal;font-variant-numeric:normal;font-variant-east-asian:normal;stroke-width:0.874552;fill:#082235;fill-opacity:1"
           id="path891" />
        <path
           d="m 101.41057,137.9693 h 4.7656 v -13.13529 q 0.23913,-0.37579 0.52951,-0.68324 0.29037,-0.30746 0.64908,-0.52952 0.4441,-0.30745 1.00777,-0.46118 0.58076,-0.15373 1.264,-0.15373 0.81989,0 1.46897,0.17081 0.64907,0.15373 1.11026,0.56367 0.46119,0.40995 0.70032,1.12735 0.25622,0.70032 0.25622,1.7935 v 11.30763 h 4.74852 v -11.37595 q 0,-2.01556 -0.47827,-3.4162 -0.46119,-1.41772 -1.29816,-2.32302 -0.85405,-0.88821 -2.01556,-1.29815 -1.1615,-0.40995 -2.56215,-0.40995 -1.09318,0 -2.0668,0.30746 -0.97362,0.30746 -1.7935,0.88821 -0.47827,0.34162 -0.9053,0.76865 -0.42702,0.42702 -0.78572,0.93945 l -0.29038,-2.56215 h -4.30441 z"
           style="font-style:normal;font-variant:normal;font-weight:bold;font-stretch:normal;font-size:34.9819px;line-height:1.25;font-family:'Roboto Mono';-inkscape-font-specification:'Roboto Mono Bold';font-variant-ligatures:normal;font-variant-caps:normal;font-variant-numeric:normal;font-variant-east-asian:normal;stroke-width:0.874552;fill:#082235;fill-opacity:1"
           id="path893" />
        <path
           d="m 121.89069,128.59183 v 0.3587 q 0,2.01556 0.49535,3.74074 0.49535,1.7081 1.43481,2.95501 0.92237,1.24692 2.25469,1.96432 1.3494,0.70032 3.04042,0.70032 1.55437,0 2.73296,-0.59784 1.17859,-0.59783 2.04972,-1.67393 l 0.23913,1.93015 h 4.28734 v -26.23643 h -4.76561 v 9.41164 q -0.85405,-0.95654 -1.96431,-1.46897 -1.09319,-0.52951 -2.54507,-0.52951 -1.72518,0 -3.07458,0.68324 -1.33232,0.68324 -2.27178,1.93016 -0.93945,1.24691 -1.4348,2.98917 -0.47827,1.74226 -0.47827,3.84323 z m 4.74852,0.3587 v -0.3587 q 0,-1.16151 0.20497,-2.16929 0.20498,-1.02486 0.64908,-1.79351 0.44411,-0.75156 1.14443,-1.17859 0.7174,-0.4441 1.72518,-0.4441 1.21275,0 2.01556,0.52951 0.80281,0.51243 1.28107,1.45189 v 7.48148 q -0.47826,0.92237 -1.29815,1.45188 -0.80281,0.52951 -2.03264,0.52951 -1.00778,0 -1.7081,-0.42702 -0.70032,-0.42703 -1.14443,-1.17859 -0.44411,-0.73449 -0.64908,-1.72518 -0.18789,-1.00778 -0.18789,-2.16929 z"
           style="font-style:normal;font-variant:normal;font-weight:bold;font-stretch:normal;font-size:34.9819px;line-height:1.25;font-family:'Roboto Mono';-inkscape-font-specification:'Roboto Mono Bold';font-variant-ligatures:normal;font-variant-caps:normal;font-variant-numeric:normal;font-variant-east-asian:normal;stroke-width:0.874552;fill:#082235;fill-opacity:1"
           id="path895" />
        <path
           d="m 144.35221,111.73287 v 3.87739 h 5.53425 v 18.49873 h -5.53425 v 3.86031 h 15.62912 v -3.86031 h -5.29511 v -22.37612 z"
           style="font-style:normal;font-variant:normal;font-weight:bold;font-stretch:normal;font-size:34.9819px;line-height:1.25;font-family:'Roboto Mono';-inkscape-font-specification:'Roboto Mono Bold';font-variant-ligatures:normal;font-variant-caps:normal;font-variant-numeric:normal;font-variant-east-asian:normal;stroke-width:0.874552;fill:#082235;fill-opacity:1"
           id="path897" />
        <path
           d="m 173.30452,138.31092 q 2.68172,0 4.64604,-1.04194 1.96431,-1.04194 2.86961,-2.32302 l -2.37426,-2.56215 q -0.81989,1.05902 -2.13513,1.58853 -1.31524,0.52952 -2.71588,0.52952 -0.9907,0 -1.82767,-0.30746 -0.83697,-0.30746 -1.48604,-0.87113 -0.632,-0.5466 -1.00778,-1.21276 -0.37579,-0.68324 -0.61492,-1.7935 v -0.0512 h 12.53746 v -2.01556 q 0,-2.03264 -0.56368,-3.70658 -0.56367,-1.69102 -1.63977,-2.88669 -1.09319,-1.19567 -2.66464,-1.84475 -1.55437,-0.66616 -3.55285,-0.66616 -1.93015,0 -3.56993,0.70032 -1.63977,0.70032 -2.83544,1.96432 -1.19568,1.26399 -1.86183,3.02334 -0.66616,1.74226 -0.66616,3.8603 v 0.68324 q 0,1.86183 0.66616,3.50161 0.68324,1.6227 1.93015,2.81837 1.24691,1.21275 2.98918,1.91307 1.74226,0.70032 3.87738,0.70032 z m -0.56367,-15.32166 q 0.90529,0 1.58853,0.29037 0.70032,0.2733 1.17859,0.75157 0.47827,0.49535 0.75157,1.16151 0.27329,0.66616 0.27329,1.41772 v 0.37578 h -7.78894 q 0.17081,-0.90529 0.51243,-1.63977 0.34163,-0.73449 0.85406,-1.264 0.49534,-0.52951 1.1615,-0.80281 0.66616,-0.29037 1.46897,-0.29037 z"
           style="font-style:normal;font-variant:normal;font-weight:bold;font-stretch:normal;font-size:34.9819px;line-height:1.25;font-family:'Roboto Mono';-inkscape-font-specification:'Roboto Mono Bold';font-variant-ligatures:normal;font-variant-caps:normal;font-variant-numeric:normal;font-variant-east-asian:normal;stroke-width:0.874552;fill:#082235;fill-opacity:1"
           id="path899" />
        <rect
           id="rect191"
           width="23.834894"
           height="2.9898372"
           x="29.978453"
           y="124.92466"
           style="fill:#ffb41f;fill-opacity:1;stroke-width:0.264583" />
      </g>
    </g>
  </g>
</svg>
