<?xml version="1.0" encoding="UTF-8"?>
<svg width="99.081mm" height="9.8303mm" version="1.1" viewBox="0 0 99.081 9.8303" xmlns="http://www.w3.org/2000/svg" xmlns:cc="http://creativecommons.org/ns#" xmlns:dc="http://purl.org/dc/elements/1.1/" xmlns:rdf="http://www.w3.org/1999/02/22-rdf-syntax-ns#" xmlns:xlink="http://www.w3.org/1999/xlink">
 <metadata>
  <rdf:RDF>
   <cc:Work rdf:about="">
    <dc:format>image/svg+xml</dc:format>
    <dc:type rdf:resource="http://purl.org/dc/dcmitype/StillImage"/>
    <dc:title/>
   </cc:Work>
  </rdf:RDF>
 </metadata>
 <g transform="translate(-72.576 -129.17)">
  <g>
   <g fill="#082235" stroke-width=".2551" style="font-variant-caps:normal;font-variant-east-asian:normal;font-variant-ligatures:normal;font-variant-numeric:normal" aria-label="Bundle Projects">
    <path d="m81.116 136.82h2.6457q0.59789 0 1.0762-0.13453 0.47832-0.13452 0.81214-0.40357 0.33382-0.26906 0.51319-0.66765 0.17937-0.3986 0.17937-0.92176 0-0.27403-0.07474-0.52814-0.06975-0.25908-0.21923-0.47831-0.14449-0.20428-0.35874-0.35874-0.20926-0.15445-0.568-0.2541v-5e-3q0.18435-0.0697 0.33382-0.1694 0.15446-0.0996 0.27404-0.21923 0.21923-0.21923 0.32884-0.50821 0.1146-0.29396 0.11958-0.6228 0-0.50822-0.18933-0.8819-0.18435-0.37368-0.52814-0.61782t-0.83207-0.36372q-0.4833-0.11957-1.0762-0.11957h-2.4364zm1.405-3.1987h1.3054q0.29396 5e-3 0.50821 0.0797 0.21425 0.0747 0.34877 0.21424 0.13453 0.13453 0.19432 0.32884 0.06477 0.19432 0.06477 0.43846 0 0.23418-0.0847 0.42351-0.07972 0.18933-0.23916 0.32386-0.14449 0.11957-0.36372 0.18933-0.21424 0.0697-0.48828 0.0697h-1.2456zm0-1.0114v-1.9033h1.0364q0.33881 5e-3 0.58793 0.0747 0.2541 0.0698 0.40358 0.22421 0.1146 0.10962 0.1694 0.27404 0.05979 0.16442 0.05979 0.38365 0 0.20926-0.06975 0.37368-0.06477 0.16442-0.18933 0.27902-0.14947 0.14449-0.39361 0.21922-0.24414 0.0698-0.56302 0.0747z" style="font-variant-caps:normal;font-variant-east-asian:normal;font-variant-ligatures:normal;font-variant-numeric:normal"/>
    <path d="m90.812 136.82h1.2556v-5.391h-1.3901v3.7817q-0.06477 0.12954-0.15446 0.23417-0.08968 0.10463-0.20428 0.17937-0.13453 0.0847-0.3139 0.12954-0.17438 0.0449-0.39361 0.0449-0.24414 0-0.41354-0.0598-0.1694-0.0598-0.27404-0.1993-0.10463-0.13453-0.15446-0.35873-0.04484-0.22422-0.04484-0.55306v-3.1987h-1.3851v3.1888q0 0.61284 0.13453 1.0513 0.13951 0.43347 0.38863 0.71248 0.24912 0.284 0.59789 0.41355 0.34877 0.12954 0.7673 0.12954 0.45839 0 0.84203-0.22919 0.38863-0.22919 0.66267-0.63277z" style="font-variant-caps:normal;font-variant-east-asian:normal;font-variant-ligatures:normal;font-variant-numeric:normal"/>
    <path d="m93.413 136.82h1.3901v-3.8315q0.06975-0.10962 0.15446-0.1993 0.0847-0.0897 0.18933-0.15446 0.12954-0.0897 0.29396-0.13452 0.1694-0.0448 0.3687-0.0448 0.23916 0 0.42849 0.0498 0.18933 0.0448 0.32386 0.16442 0.13453 0.11958 0.20428 0.32884 0.07474 0.20428 0.07474 0.52316v3.2984h1.3851v-3.3183q0-0.58793-0.13951-0.99649-0.13453-0.41354-0.37867-0.67761-0.24912-0.25909-0.58793-0.37867-0.3388-0.11958-0.74737-0.11958-0.31888 0-0.60288 0.0897-0.284 0.0897-0.52316 0.25908-0.13951 0.0996-0.26407 0.22421-0.12456 0.12456-0.22919 0.27404l-0.0847-0.74737h-1.2556z" style="font-variant-caps:normal;font-variant-east-asian:normal;font-variant-ligatures:normal;font-variant-numeric:normal"/>
    <path d="m99.387 134.09v0.10463q0 0.58793 0.14449 1.0912 0.14449 0.49825 0.41853 0.86197 0.26905 0.36372 0.65768 0.57298 0.39362 0.20428 0.88688 0.20428 0.4534 0 0.79719-0.17439 0.34379-0.17438 0.59789-0.48828l0.0698 0.56302h1.2506v-7.653h-1.3901v2.7453q-0.24913-0.27902-0.57298-0.42849-0.31888-0.15446-0.74239-0.15446-0.50322 0-0.89684 0.1993-0.38863 0.1993-0.66266 0.56302-0.27403 0.36372-0.41852 0.87193-0.13951 0.5082-0.13951 1.121zm1.3851 0.10463v-0.10463q0-0.33881 0.0598-0.63277 0.0598-0.29895 0.18933-0.52316 0.12955-0.21923 0.33383-0.34379 0.20926-0.12954 0.50323-0.12954 0.35375 0 0.58793 0.15445 0.23417 0.14948 0.37368 0.42351v2.1823q-0.13951 0.26905-0.37867 0.42351-0.23417 0.15446-0.59291 0.15446-0.29396 0-0.49824-0.12456-0.20428-0.12457-0.33383-0.34379-0.12954-0.21425-0.18933-0.50323-0.0548-0.29397-0.0548-0.63277z" style="font-variant-caps:normal;font-variant-east-asian:normal;font-variant-ligatures:normal;font-variant-numeric:normal"/>
    <path d="m105.94 129.17v1.131h1.6143v5.396h-1.6143v1.126h4.5589v-1.126h-1.5446v-6.527z" style="font-variant-caps:normal;font-variant-east-asian:normal;font-variant-ligatures:normal;font-variant-numeric:normal"/>
    <path d="m114.38 136.92q0.78225 0 1.3552-0.30393t0.83705-0.67761l-0.69256-0.74737q-0.23916 0.30891-0.62281 0.46337-0.38365 0.15445-0.79221 0.15445-0.28898 0-0.53312-0.0897t-0.43347-0.2541q-0.18435-0.15945-0.29396-0.35376-0.10962-0.1993-0.17937-0.52316v-0.0149h3.6571v-0.58793q0-0.59291-0.16442-1.0812-0.16442-0.49326-0.47831-0.84204-0.31888-0.34877-0.77727-0.5381-0.4534-0.19432-1.0363-0.19432-0.56302 0-1.0413 0.20428-0.47831 0.20428-0.82708 0.57299-0.34877 0.3687-0.54309 0.88189-0.19431 0.50821-0.19431 1.126v0.1993q0 0.54309 0.19431 1.0214 0.1993 0.47334 0.56302 0.82211 0.36372 0.35375 0.87193 0.55803t1.131 0.20428zm-0.16442-4.4693q0.26407 0 0.46337 0.0847 0.20428 0.0797 0.34379 0.21923 0.13951 0.14449 0.21923 0.33881 0.0797 0.19432 0.0797 0.41354v0.10962h-2.272q0.0498-0.26407 0.14947-0.47832 0.0996-0.21425 0.24913-0.3687 0.14448-0.15446 0.3388-0.23418 0.19431-0.0847 0.42849-0.0847z" style="font-variant-caps:normal;font-variant-east-asian:normal;font-variant-ligatures:normal;font-variant-numeric:normal"/>
    <path d="m125.44 134.16h1.0812q0.59291 0 1.0712-0.1694 0.47832-0.1694 0.81712-0.47333 0.33383-0.29895 0.5132-0.71249 0.18435-0.41354 0.18435-0.90183 0-0.52315-0.18435-0.95165-0.17937-0.42848-0.5132-0.73739-0.3388-0.30394-0.81712-0.47334-0.47831-0.17438-1.0712-0.17438h-2.4813v7.2544h1.4001zm0-1.136v-2.3218h1.0812q0.29894 0 0.51817 0.0947t0.3687 0.25909q0.14449 0.16442 0.21425 0.38365 0.0747 0.21922 0.0747 0.47333 0 0.21923-0.0747 0.42351-0.0698 0.19929-0.21425 0.35375-0.14947 0.15446-0.3687 0.24414-0.21923 0.0897-0.51817 0.0897z" style="font-variant-caps:normal;font-variant-east-asian:normal;font-variant-ligatures:normal;font-variant-numeric:normal"/>
    <path d="m133.99 131.33q-0.54309 0-1.0015 0.26407-0.45839 0.25909-0.78723 0.71747l-0.01-0.11957-0.0548-0.76232h-1.2904v5.391h1.3851v-3.2386q0.0947-0.22919 0.23916-0.3986 0.14449-0.1694 0.34877-0.27901 0.1694-0.0947 0.38365-0.13951 0.21922-0.0498 0.48828-0.0498 0.25909 0 0.54309 0.0349 0.28898 0.0299 0.56301 0.0947l0.20428-1.3801q-0.16442-0.0498-0.43347-0.0897-0.26407-0.0448-0.57796-0.0448z" style="font-variant-caps:normal;font-variant-east-asian:normal;font-variant-ligatures:normal;font-variant-numeric:normal"/>
    <path d="m136.05 134.08v0.10463q0 0.59292 0.1694 1.0961 0.16941 0.49825 0.49825 0.86695 0.32386 0.3687 0.79719 0.57796 0.47831 0.20428 1.0862 0.20428 0.60288 0 1.0762-0.20428 0.47333-0.20926 0.79719-0.57796t0.49326-0.86695q0.16941-0.50322 0.16941-1.0961v-0.10463q0-0.58793-0.16941-1.0862-0.1694-0.50323-0.49326-0.87193-0.32884-0.3687-0.80217-0.57797-0.47333-0.20926-1.0812-0.20926t-1.0812 0.20926q-0.46835 0.20927-0.79221 0.57797-0.32884 0.3687-0.49825 0.87193-0.1694 0.49824-0.1694 1.0862zm1.3851 0.10463v-0.10463q0-0.32884 0.0648-0.6228 0.0648-0.29397 0.20428-0.51818 0.13951-0.22421 0.35874-0.35375 0.21923-0.12955 0.52814-0.12955 0.31389 0 0.53312 0.12955 0.21923 0.12954 0.35874 0.35375 0.13452 0.22421 0.19929 0.51818 0.0648 0.29396 0.0648 0.6228v0.10463q0 0.33881-0.0648 0.63776-0.0648 0.29396-0.19929 0.51319-0.13951 0.22421-0.35874 0.35375-0.21923 0.12955-0.52316 0.12955-0.31389 0-0.5381-0.12955-0.21923-0.12954-0.35874-0.35375-0.13951-0.21923-0.20428-0.51319-0.0648-0.29895-0.0648-0.63776z" style="font-variant-caps:normal;font-variant-east-asian:normal;font-variant-ligatures:normal;font-variant-numeric:normal"/>
    <path d="m143.19 131.43v1.131h1.3602v4.3846q0 0.25909-0.0747 0.42849-0.0747 0.17439-0.1993 0.27902-0.12954 0.10463-0.30891 0.14947-0.17439 0.0448-0.37369 0.0448-0.0498 0-0.15445-5e-3 -0.0996 0-0.20926-0.01-0.1146-5e-3 -0.22421-0.0199-0.10464-0.01-0.16443-0.0249l-0.0697 1.126q0.0897 0.0199 0.17937 0.0349 0.0947 0.0149 0.18933 0.0249 0.12955 0.015 0.25909 0.0199 0.13452 5e-3 0.26407 5e-3 0.54309 0 0.96659-0.11958 0.42351-0.11958 0.71748-0.37368 0.29396-0.24912 0.44842-0.63775 0.15445-0.38365 0.15445-0.92176v-5.5156zm1.2655-1.3801q0 0.31888 0.21424 0.52814 0.21923 0.20927 0.57797 0.20927 0.3687 0 0.58294-0.20428 0.21923-0.20927 0.21923-0.53313t-0.21923-0.52814q-0.21424-0.20926-0.58294-0.20926-0.36871 0-0.58295 0.21425-0.20926 0.21424-0.20926 0.52315z" style="font-variant-caps:normal;font-variant-east-asian:normal;font-variant-ligatures:normal;font-variant-numeric:normal"/>
    <path d="m151.09 136.92q0.78224 0 1.3552-0.30393 0.57299-0.30393 0.83705-0.67761l-0.69256-0.74737q-0.23915 0.30891-0.6228 0.46337-0.38365 0.15445-0.79221 0.15445-0.28898 0-0.53312-0.0897t-0.43348-0.2541q-0.18435-0.15945-0.29396-0.35376-0.10961-0.1993-0.17937-0.52316v-0.0149h3.6571v-0.58793q0-0.59291-0.16442-1.0812-0.16442-0.49326-0.47832-0.84204-0.31887-0.34877-0.77726-0.5381-0.4534-0.19432-1.0364-0.19432-0.56302 0-1.0413 0.20428t-0.82709 0.57299q-0.34877 0.3687-0.54308 0.88189-0.19432 0.50821-0.19432 1.126v0.1993q0 0.54309 0.19432 1.0214 0.19929 0.47334 0.56301 0.82211 0.36372 0.35375 0.87193 0.55803t1.131 0.20428zm-0.16442-4.4693q0.26407 0 0.46336 0.0847 0.20428 0.0797 0.34379 0.21923 0.13951 0.14449 0.21923 0.33881 0.0797 0.19432 0.0797 0.41354v0.10962h-2.272q0.0498-0.26407 0.14948-0.47832 0.0996-0.21425 0.24912-0.3687 0.14449-0.15446 0.33881-0.23418 0.19431-0.0847 0.42849-0.0847z" style="font-variant-caps:normal;font-variant-east-asian:normal;font-variant-ligatures:normal;font-variant-numeric:normal"/>
    <path d="m156.98 135.82q-0.33382 0-0.55305-0.13453-0.21424-0.13453-0.33881-0.35874-0.12954-0.21923-0.17937-0.50821-0.0498-0.29396-0.0498-0.60786v-0.14947q0-0.30891 0.0498-0.59789 0.0548-0.28898 0.18436-0.51319 0.12456-0.22422 0.3388-0.35874 0.21425-0.13453 0.54309-0.13453 0.22421 0 0.41354 0.0797 0.18934 0.0747 0.32386 0.20428 0.13453 0.12955 0.20428 0.30892 0.0698 0.17936 0.0598 0.37866h1.3054q0.01-0.47831-0.15944-0.86196-0.1694-0.38863-0.47333-0.66267-0.30891-0.26905-0.73242-0.41852-0.42351-0.14948-0.92175-0.14948-0.62281 0-1.0961 0.21425-0.46835 0.21424-0.78723 0.58294-0.31887 0.36871-0.47831 0.86695-0.15944 0.49326-0.15944 1.0613v0.14947q0 0.56801 0.15944 1.0662 0.16442 0.49326 0.4833 0.86196 0.31389 0.3687 0.78722 0.58295 0.47334 0.20926 1.1011 0.20926 0.46336 0 0.8769-0.14449 0.41853-0.14947 0.73243-0.40856 0.31389-0.25909 0.49326-0.61783 0.18435-0.35873 0.17438-0.77725h-1.3054q0.01 0.18933-0.0697 0.34378-0.0747 0.15446-0.21425 0.26407-0.13951 0.10962-0.32386 0.1694-0.18435 0.0598-0.38863 0.0598z" style="font-variant-caps:normal;font-variant-east-asian:normal;font-variant-ligatures:normal;font-variant-numeric:normal"/>
    <path d="m163.26 130.11h-1.3851v1.3204h-1.2307v1.0214h1.2307v2.4514q0 0.53312 0.13951 0.91677 0.13951 0.37866 0.3986 0.6228 0.2541 0.24913 0.61284 0.36871 0.36372 0.11459 0.80716 0.11459 0.22919 0 0.46336-0.0249 0.23916-0.0199 0.45839-0.0598t0.41354-0.0996q0.19432-0.0648 0.33881-0.14947l-0.13453-0.95165q-0.0947 0.0249-0.22919 0.0498-0.12954 0.0249-0.27902 0.0448-0.15445 0.0249-0.32386 0.0399-0.16442 0.0149-0.32386 0.0149-0.21922 0-0.39859-0.0498-0.17439-0.0498-0.29895-0.16941-0.12456-0.11459-0.19431-0.30891-0.0648-0.1993-0.0648-0.49326v-2.3168h2.0129v-1.0214h-2.0129z" style="font-variant-caps:normal;font-variant-east-asian:normal;font-variant-ligatures:normal;font-variant-numeric:normal"/>
    <path d="m170.31 135.34q0 0.12457-0.0648 0.2292-0.0598 0.10463-0.18435 0.18434-0.12955 0.0797-0.33383 0.12955-0.19929 0.0448-0.46835 0.0448-0.22421 0-0.43845-0.0448-0.20927-0.0448-0.37369-0.14449-0.16442-0.0947-0.26905-0.24912-0.10463-0.15944-0.11958-0.37867h-1.3204q0 0.32884 0.15944 0.65768 0.16442 0.32386 0.47832 0.57797 0.31389 0.25909 0.77726 0.41852 0.46835 0.15944 1.0762 0.15944 0.55305 0 1.0015-0.11958 0.44842-0.12456 0.7673-0.34379 0.31389-0.21922 0.48329-0.51817 0.17439-0.30393 0.17439-0.66267 0-0.38863-0.17439-0.66765-0.1694-0.28399-0.47333-0.48329-0.30393-0.19432-0.72245-0.31888-0.41853-0.12456-0.90681-0.20428-0.3388-0.0498-0.55803-0.11459-0.21923-0.0698-0.34379-0.15446-0.12955-0.0797-0.17937-0.17937-0.0498-0.10463-0.0498-0.22421t0.0548-0.22421q0.0598-0.10961 0.1694-0.18933 0.11958-0.0897 0.30892-0.13951 0.18933-0.0498 0.44343-0.0498 0.29895 0 0.50822 0.0747 0.21424 0.0747 0.3388 0.1993 0.0897 0.0947 0.13453 0.21424 0.0448 0.1146 0.0448 0.24913h1.3851q0-0.37369-0.16442-0.69256-0.16442-0.31888-0.47333-0.55306-0.3139-0.22919-0.76232-0.35873-0.44842-0.13453-1.0114-0.13453-0.5381 0-0.96659 0.13453t-0.72744 0.36372-0.45838 0.53312q-0.15944 0.30393-0.15944 0.63775 0 0.34379 0.15446 0.60786 0.15943 0.26407 0.43845 0.46337 0.27902 0.20428 0.66765 0.34877 0.39361 0.13951 0.86695 0.23417 0.37368 0.0698 0.61782 0.13951 0.24414 0.0698 0.39361 0.14948 0.14449 0.0847 0.1993 0.17937 0.0598 0.0947 0.0598 0.21922z" style="font-variant-caps:normal;font-variant-east-asian:normal;font-variant-ligatures:normal;font-variant-numeric:normal"/>
   </g>
   <rect x="72.576" y="133.02" width="6.9525" height=".87212" fill="#ffb41f" stroke-width=".077178"/>
  </g>
 </g>
</svg>
