<?xml version="1.0" encoding="UTF-8" standalone="no"?>
<svg
   xmlns:dc="http://purl.org/dc/elements/1.1/"
   xmlns:cc="http://creativecommons.org/ns#"
   xmlns:rdf="http://www.w3.org/1999/02/22-rdf-syntax-ns#"
   xmlns:svg="http://www.w3.org/2000/svg"
   xmlns="http://www.w3.org/2000/svg"
   xmlns:xlink="http://www.w3.org/1999/xlink"
   xmlns:sodipodi="http://sodipodi.sourceforge.net/DTD/sodipodi-0.dtd"
   xmlns:inkscape="http://www.inkscape.org/namespaces/inkscape"
   width="210mm"
   height="297mm"
   viewBox="0 0 210 297"
   version="1.1"
   id="svg8"
   inkscape:version="1.0.1 (3bc2e813f5, 2020-09-07)"
   sodipodi:docname="projects.svg">
  <defs
     id="defs2">
    <linearGradient
       inkscape:collect="always"
       id="linearGradient18">
      <stop
         style="stop-color:#000000;stop-opacity:1;"
         offset="0"
         id="stop14" />
      <stop
         style="stop-color:#000000;stop-opacity:0;"
         offset="1"
         id="stop16" />
    </linearGradient>
    <linearGradient
       inkscape:collect="always"
       xlink:href="#linearGradient18"
       id="linearGradient20"
       x1="-64.376701"
       y1="-66.091133"
       x2="276.76697"
       y2="-140.78598"
       gradientUnits="userSpaceOnUse"
       spreadMethod="pad" />
  </defs>
  <sodipodi:namedview
     id="base"
     pagecolor="#ffffff"
     bordercolor="#666666"
     borderopacity="1.0"
     inkscape:pageopacity="0.0"
     inkscape:pageshadow="2"
     inkscape:zoom="0.66245342"
     inkscape:cx="614.67207"
     inkscape:cy="463.63533"
     inkscape:document-units="mm"
     inkscape:current-layer="text187"
     inkscape:document-rotation="0"
     showgrid="false"
     inkscape:window-width="1920"
     inkscape:window-height="1016"
     inkscape:window-x="0"
     inkscape:window-y="27"
     inkscape:window-maximized="1" />
  <metadata
     id="metadata5">
    <rdf:RDF>
      <cc:Work
         rdf:about="">
        <dc:format>image/svg+xml</dc:format>
        <dc:type
           rdf:resource="http://purl.org/dc/dcmitype/StillImage" />
        <dc:title></dc:title>
      </cc:Work>
    </rdf:RDF>
  </metadata>
  <g
     inkscape:label="Layer 1"
     inkscape:groupmode="layer"
     id="layer1">
    <g
       id="g849">
      <g
         aria-label="Bundle Projects"
         id="text187"
         style="font-style:normal;font-variant:normal;font-weight:normal;font-stretch:normal;font-size:34.9819px;line-height:1.25;font-family:'Roboto Mono', '@wght=700', '@wght=700', '@wght=688';-inkscape-font-specification:'Roboto Mono, @wght=700, @wght=700, @wght=688';font-variant-ligatures:normal;font-variant-caps:normal;font-variant-numeric:normal;font-variant-east-asian:normal;stroke-width:0.874552">
        <path
           d="m 81.116025,136.82445 h 2.64568 q 0.597894,0 1.076209,-0.13453 0.478315,-0.13452 0.812139,-0.40357 0.333824,-0.26906 0.513192,-0.66765 0.179368,-0.3986 0.179368,-0.92176 0,-0.27403 -0.07474,-0.52814 -0.06975,-0.25908 -0.219228,-0.47831 -0.144491,-0.20428 -0.358736,-0.35874 -0.209262,-0.15445 -0.567999,-0.2541 v -0.005 q 0.184351,-0.0697 0.333824,-0.1694 0.154456,-0.0996 0.274035,-0.21923 0.219227,-0.21923 0.328841,-0.50821 0.114597,-0.29396 0.119579,-0.6228 0,-0.50822 -0.189333,-0.8819 -0.18435,-0.37368 -0.528139,-0.61782 -0.343789,-0.24414 -0.832069,-0.36372 Q 84.145353,129.57 83.552442,129.57 h -2.436417 z m 1.40505,-3.19873 h 1.305402 q 0.293964,0.005 0.508209,0.0797 0.214246,0.0747 0.348772,0.21424 0.134526,0.13453 0.194315,0.32884 0.06477,0.19432 0.06477,0.43846 0,0.23418 -0.0847,0.42351 -0.07972,0.18933 -0.239157,0.32386 -0.144491,0.11957 -0.363719,0.18933 -0.214245,0.0697 -0.48828,0.0697 h -1.245612 z m 0,-1.01144 v -1.90329 h 1.03635 q 0.338806,0.005 0.587928,0.0747 0.254105,0.0698 0.403579,0.22421 0.114596,0.10962 0.169403,0.27404 0.05979,0.16442 0.05979,0.38365 0,0.20926 -0.06975,0.37368 -0.06477,0.16442 -0.189333,0.27902 -0.149473,0.14449 -0.393613,0.21922 -0.24414,0.0698 -0.563017,0.0747 z"
           style="font-style:normal;font-variant:normal;font-weight:bold;font-stretch:normal;font-size:34.9819px;font-family:'Roboto Mono';-inkscape-font-specification:'Roboto Mono Bold';font-variant-ligatures:normal;font-variant-caps:normal;font-variant-numeric:normal;font-variant-east-asian:normal;fill:#082235;fill-opacity:1;stroke-width:0.255103"
           id="path935" />
        <path
           d="m 90.811869,136.82445 h 1.255577 v -5.39101 h -1.390103 v 3.78168 q -0.06477,0.12954 -0.154456,0.23417 -0.08968,0.10463 -0.20428,0.17937 -0.134526,0.0847 -0.313895,0.12954 -0.174385,0.0449 -0.393613,0.0449 -0.24414,0 -0.413543,-0.0598 -0.169404,-0.0598 -0.274035,-0.1993 -0.104631,-0.13453 -0.154456,-0.35873 -0.04484,-0.22422 -0.04484,-0.55306 v -3.19873 h -1.38512 v 3.18877 q 0,0.61284 0.134526,1.0513 0.139508,0.43347 0.388631,0.71248 0.249122,0.284 0.597894,0.41355 0.348771,0.12954 0.767296,0.12954 0.458386,0 0.842034,-0.22919 0.388631,-0.22919 0.662666,-0.63277 z"
           style="font-style:normal;font-variant:normal;font-weight:bold;font-stretch:normal;font-size:34.9819px;font-family:'Roboto Mono';-inkscape-font-specification:'Roboto Mono Bold';font-variant-ligatures:normal;font-variant-caps:normal;font-variant-numeric:normal;font-variant-east-asian:normal;fill:#082235;fill-opacity:1;stroke-width:0.255103"
           id="path937" />
        <path
           d="m 93.412708,136.82445 h 1.390103 v -3.8315 q 0.06975,-0.10962 0.154455,-0.1993 0.0847,-0.0897 0.189334,-0.15446 0.129542,-0.0897 0.293962,-0.13452 0.169405,-0.0448 0.368702,-0.0448 0.239158,0 0.428492,0.0498 0.189331,0.0448 0.323858,0.16442 0.134526,0.11958 0.20428,0.32884 0.07474,0.20428 0.07474,0.52316 v 3.29838 h 1.38512 v -3.31831 q 0,-0.58793 -0.139509,-0.99649 -0.134527,-0.41354 -0.378667,-0.67761 -0.249122,-0.25909 -0.587929,-0.37867 -0.338804,-0.11958 -0.747367,-0.11958 -0.318875,0 -0.602876,0.0897 -0.284,0.0897 -0.523155,0.25908 -0.139509,0.0996 -0.264072,0.22421 -0.12456,0.12456 -0.229191,0.27404 l -0.0847,-0.74737 h -1.255576 z"
           style="font-style:normal;font-variant:normal;font-weight:bold;font-stretch:normal;font-size:34.9819px;font-family:'Roboto Mono';-inkscape-font-specification:'Roboto Mono Bold';font-variant-ligatures:normal;font-variant-caps:normal;font-variant-numeric:normal;font-variant-east-asian:normal;fill:#082235;fill-opacity:1;stroke-width:0.255103"
           id="path939" />
        <path
           d="m 99.386661,134.08909 v 0.10463 q 0,0.58793 0.144492,1.09115 0.144491,0.49825 0.418527,0.86197 0.26905,0.36372 0.65768,0.57298 0.39362,0.20428 0.88688,0.20428 0.4534,0 0.79719,-0.17439 0.34379,-0.17438 0.59789,-0.48828 l 0.0698,0.56302 h 1.25059 v -7.65304 h -1.3901 v 2.74533 q -0.24913,-0.27902 -0.57298,-0.42849 -0.31888,-0.15446 -0.74239,-0.15446 -0.50322,0 -0.89684,0.1993 -0.38863,0.1993 -0.662665,0.56302 -0.274033,0.36372 -0.418524,0.87193 -0.13951,0.5082 -0.13951,1.12105 z m 1.385119,0.10463 v -0.10463 q 0,-0.33881 0.0598,-0.63277 0.0598,-0.29895 0.18933,-0.52316 0.12955,-0.21923 0.33383,-0.34379 0.20926,-0.12954 0.50323,-0.12954 0.35375,0 0.58793,0.15445 0.23417,0.14948 0.37368,0.42351 v 2.18231 q -0.13951,0.26905 -0.37867,0.42351 -0.23417,0.15446 -0.59291,0.15446 -0.29396,0 -0.49824,-0.12456 -0.20428,-0.12457 -0.33383,-0.34379 -0.12954,-0.21425 -0.18933,-0.50323 -0.0548,-0.29397 -0.0548,-0.63277 z"
           style="font-style:normal;font-variant:normal;font-weight:bold;font-stretch:normal;font-size:34.9819px;font-family:'Roboto Mono';-inkscape-font-specification:'Roboto Mono Bold';font-variant-ligatures:normal;font-variant-caps:normal;font-variant-numeric:normal;font-variant-east-asian:normal;fill:#082235;fill-opacity:1;stroke-width:0.255103"
           id="path941" />
        <path
           d="m 105.93858,129.17141 v 1.13101 h 1.61431 v 5.396 h -1.61431 v 1.12603 h 4.55894 v -1.12603 h -1.54456 v -6.52701 z"
           style="font-style:normal;font-variant:normal;font-weight:bold;font-stretch:normal;font-size:34.9819px;font-family:'Roboto Mono';-inkscape-font-specification:'Roboto Mono Bold';font-variant-ligatures:normal;font-variant-caps:normal;font-variant-numeric:normal;font-variant-east-asian:normal;fill:#082235;fill-opacity:1;stroke-width:0.255103"
           id="path943" />
        <path
           d="m 114.38383,136.9241 q 0.78225,0 1.35523,-0.30393 0.57298,-0.30393 0.83705,-0.67761 l -0.69256,-0.74737 q -0.23916,0.30891 -0.62281,0.46337 -0.38365,0.15445 -0.79221,0.15445 -0.28898,0 -0.53312,-0.0897 -0.24414,-0.0897 -0.43347,-0.2541 -0.18435,-0.15945 -0.29396,-0.35376 -0.10962,-0.1993 -0.17937,-0.52316 v -0.0149 h 3.65711 v -0.58793 q 0,-0.59291 -0.16442,-1.08119 -0.16442,-0.49326 -0.47831,-0.84204 -0.31888,-0.34877 -0.77727,-0.5381 -0.4534,-0.19432 -1.03634,-0.19432 -0.56302,0 -1.04134,0.20428 -0.47831,0.20428 -0.82708,0.57299 -0.34877,0.3687 -0.54309,0.88189 -0.19431,0.50821 -0.19431,1.12603 v 0.1993 q 0,0.54309 0.19431,1.0214 0.1993,0.47334 0.56302,0.82211 0.36372,0.35375 0.87193,0.55803 0.50821,0.20428 1.13101,0.20428 z m -0.16442,-4.46926 q 0.26407,0 0.46337,0.0847 0.20428,0.0797 0.34379,0.21923 0.13951,0.14449 0.21923,0.33881 0.0797,0.19432 0.0797,0.41354 v 0.10962 h -2.27199 q 0.0498,-0.26407 0.14947,-0.47832 0.0996,-0.21425 0.24913,-0.3687 0.14448,-0.15446 0.3388,-0.23418 0.19431,-0.0847 0.42849,-0.0847 z"
           style="font-style:normal;font-variant:normal;font-weight:bold;font-stretch:normal;font-size:34.9819px;font-family:'Roboto Mono';-inkscape-font-specification:'Roboto Mono Bold';font-variant-ligatures:normal;font-variant-caps:normal;font-variant-numeric:normal;font-variant-east-asian:normal;fill:#082235;fill-opacity:1;stroke-width:0.255103"
           id="path945" />
        <path
           d="m 125.44487,134.16382 h 1.08119 q 0.59291,0 1.07122,-0.1694 0.47832,-0.1694 0.81712,-0.47333 0.33383,-0.29895 0.5132,-0.71249 0.18435,-0.41354 0.18435,-0.90183 0,-0.52315 -0.18435,-0.95165 -0.17937,-0.42848 -0.5132,-0.73739 -0.3388,-0.30394 -0.81712,-0.47334 -0.47831,-0.17438 -1.07122,-0.17438 h -2.48126 v 7.25444 h 1.40007 z m 0,-1.136 V 130.706 h 1.08119 q 0.29894,0 0.51817,0.0947 0.21923,0.0947 0.3687,0.25909 0.14449,0.16442 0.21425,0.38365 0.0747,0.21922 0.0747,0.47333 0,0.21923 -0.0747,0.42351 -0.0698,0.19929 -0.21425,0.35375 -0.14947,0.15446 -0.3687,0.24414 -0.21923,0.0897 -0.51817,0.0897 z"
           style="font-style:normal;font-variant:normal;font-weight:bold;font-stretch:normal;font-size:34.9819px;font-family:'Roboto Mono';-inkscape-font-specification:'Roboto Mono Bold';font-variant-ligatures:normal;font-variant-caps:normal;font-variant-numeric:normal;font-variant-east-asian:normal;fill:#082235;fill-opacity:1;stroke-width:0.255103"
           id="path947" />
        <path
           d="m 133.99475,131.33379 q -0.54309,0 -1.00147,0.26407 -0.45839,0.25909 -0.78723,0.71747 l -0.01,-0.11957 -0.0548,-0.76232 h -1.29045 v 5.39101 h 1.38512 v -3.23859 q 0.0947,-0.22919 0.23916,-0.3986 0.14449,-0.1694 0.34877,-0.27901 0.1694,-0.0947 0.38365,-0.13951 0.21922,-0.0498 0.48828,-0.0498 0.25909,0 0.54309,0.0349 0.28898,0.0299 0.56301,0.0947 l 0.20428,-1.38014 q -0.16442,-0.0498 -0.43347,-0.0897 -0.26407,-0.0448 -0.57796,-0.0448 z"
           style="font-style:normal;font-variant:normal;font-weight:bold;font-stretch:normal;font-size:34.9819px;font-family:'Roboto Mono';-inkscape-font-specification:'Roboto Mono Bold';font-variant-ligatures:normal;font-variant-caps:normal;font-variant-numeric:normal;font-variant-east-asian:normal;fill:#082235;fill-opacity:1;stroke-width:0.255103"
           id="path949" />
        <path
           d="m 136.0525,134.07912 v 0.10463 q 0,0.59292 0.1694,1.09614 0.16941,0.49825 0.49825,0.86695 0.32386,0.3687 0.79719,0.57796 0.47831,0.20428 1.08617,0.20428 0.60288,0 1.07621,-0.20428 0.47333,-0.20926 0.79719,-0.57796 0.32386,-0.3687 0.49326,-0.86695 0.16941,-0.50322 0.16941,-1.09614 v -0.10463 q 0,-0.58793 -0.16941,-1.08617 -0.1694,-0.50323 -0.49326,-0.87193 -0.32884,-0.3687 -0.80217,-0.57797 -0.47333,-0.20926 -1.08119,-0.20926 -0.60786,0 -1.08119,0.20926 -0.46835,0.20927 -0.79221,0.57797 -0.32884,0.3687 -0.49825,0.87193 -0.1694,0.49824 -0.1694,1.08617 z m 1.38512,0.10463 v -0.10463 q 0,-0.32884 0.0648,-0.6228 0.0648,-0.29397 0.20428,-0.51818 0.13951,-0.22421 0.35874,-0.35375 0.21923,-0.12955 0.52814,-0.12955 0.31389,0 0.53312,0.12955 0.21923,0.12954 0.35874,0.35375 0.13452,0.22421 0.19929,0.51818 0.0648,0.29396 0.0648,0.6228 v 0.10463 q 0,0.33881 -0.0648,0.63776 -0.0648,0.29396 -0.19929,0.51319 -0.13951,0.22421 -0.35874,0.35375 -0.21923,0.12955 -0.52316,0.12955 -0.31389,0 -0.5381,-0.12955 -0.21923,-0.12954 -0.35874,-0.35375 -0.13951,-0.21923 -0.20428,-0.51319 -0.0648,-0.29895 -0.0648,-0.63776 z"
           style="font-style:normal;font-variant:normal;font-weight:bold;font-stretch:normal;font-size:34.9819px;font-family:'Roboto Mono';-inkscape-font-specification:'Roboto Mono Bold';font-variant-ligatures:normal;font-variant-caps:normal;font-variant-numeric:normal;font-variant-east-asian:normal;fill:#082235;fill-opacity:1;stroke-width:0.255103"
           id="path951" />
        <path
           d="m 143.18737,131.43344 v 1.13102 h 1.3602 v 4.38455 q 0,0.25909 -0.0747,0.42849 -0.0747,0.17439 -0.1993,0.27902 -0.12954,0.10463 -0.30891,0.14947 -0.17439,0.0448 -0.37369,0.0448 -0.0498,0 -0.15445,-0.005 -0.0996,0 -0.20926,-0.01 -0.1146,-0.005 -0.22421,-0.0199 -0.10464,-0.01 -0.16443,-0.0249 l -0.0697,1.12603 q 0.0897,0.0199 0.17937,0.0349 0.0947,0.0149 0.18933,0.0249 0.12955,0.015 0.25909,0.0199 0.13452,0.005 0.26407,0.005 0.54309,0 0.96659,-0.11958 0.42351,-0.11958 0.71748,-0.37368 0.29396,-0.24912 0.44842,-0.63775 0.15445,-0.38365 0.15445,-0.92176 v -5.51557 z m 1.26554,-1.38014 q 0,0.31888 0.21424,0.52814 0.21923,0.20927 0.57797,0.20927 0.3687,0 0.58294,-0.20428 0.21923,-0.20927 0.21923,-0.53313 0,-0.32386 -0.21923,-0.52814 -0.21424,-0.20926 -0.58294,-0.20926 -0.36871,0 -0.58295,0.21425 -0.20926,0.21424 -0.20926,0.52315 z"
           style="font-style:normal;font-variant:normal;font-weight:bold;font-stretch:normal;font-size:34.9819px;font-family:'Roboto Mono';-inkscape-font-specification:'Roboto Mono Bold';font-variant-ligatures:normal;font-variant-caps:normal;font-variant-numeric:normal;font-variant-east-asian:normal;fill:#082235;fill-opacity:1;stroke-width:0.255103"
           id="path953" />
        <path
           d="m 151.09451,136.9241 q 0.78224,0 1.35522,-0.30393 0.57299,-0.30393 0.83705,-0.67761 l -0.69256,-0.74737 q -0.23915,0.30891 -0.6228,0.46337 -0.38365,0.15445 -0.79221,0.15445 -0.28898,0 -0.53312,-0.0897 -0.24414,-0.0897 -0.43348,-0.2541 -0.18435,-0.15945 -0.29396,-0.35376 -0.10961,-0.1993 -0.17937,-0.52316 v -0.0149 h 3.65712 v -0.58793 q 0,-0.59291 -0.16442,-1.08119 -0.16442,-0.49326 -0.47832,-0.84204 -0.31887,-0.34877 -0.77726,-0.5381 -0.4534,-0.19432 -1.03635,-0.19432 -0.56302,0 -1.04133,0.20428 -0.47831,0.20428 -0.82709,0.57299 -0.34877,0.3687 -0.54308,0.88189 -0.19432,0.50821 -0.19432,1.12603 v 0.1993 q 0,0.54309 0.19432,1.0214 0.19929,0.47334 0.56301,0.82211 0.36372,0.35375 0.87193,0.55803 0.50821,0.20428 1.13102,0.20428 z m -0.16442,-4.46926 q 0.26407,0 0.46336,0.0847 0.20428,0.0797 0.34379,0.21923 0.13951,0.14449 0.21923,0.33881 0.0797,0.19432 0.0797,0.41354 v 0.10962 h -2.272 q 0.0498,-0.26407 0.14948,-0.47832 0.0996,-0.21425 0.24912,-0.3687 0.14449,-0.15446 0.33881,-0.23418 0.19431,-0.0847 0.42849,-0.0847 z"
           style="font-style:normal;font-variant:normal;font-weight:bold;font-stretch:normal;font-size:34.9819px;font-family:'Roboto Mono';-inkscape-font-specification:'Roboto Mono Bold';font-variant-ligatures:normal;font-variant-caps:normal;font-variant-numeric:normal;font-variant-east-asian:normal;fill:#082235;fill-opacity:1;stroke-width:0.255103"
           id="path955" />
        <path
           d="m 156.98376,135.818 q -0.33382,0 -0.55305,-0.13453 -0.21424,-0.13453 -0.33881,-0.35874 -0.12954,-0.21923 -0.17937,-0.50821 -0.0498,-0.29396 -0.0498,-0.60786 v -0.14947 q 0,-0.30891 0.0498,-0.59789 0.0548,-0.28898 0.18436,-0.51319 0.12456,-0.22422 0.3388,-0.35874 0.21425,-0.13453 0.54309,-0.13453 0.22421,0 0.41354,0.0797 0.18934,0.0747 0.32386,0.20428 0.13453,0.12955 0.20428,0.30892 0.0698,0.17936 0.0598,0.37866 h 1.3054 q 0.01,-0.47831 -0.15944,-0.86196 -0.1694,-0.38863 -0.47333,-0.66267 -0.30891,-0.26905 -0.73242,-0.41852 -0.42351,-0.14948 -0.92175,-0.14948 -0.62281,0 -1.09614,0.21425 -0.46835,0.21424 -0.78723,0.58294 -0.31887,0.36871 -0.47831,0.86695 -0.15944,0.49326 -0.15944,1.06126 v 0.14947 q 0,0.56801 0.15944,1.06625 0.16442,0.49326 0.4833,0.86196 0.31389,0.3687 0.78722,0.58295 0.47334,0.20926 1.10113,0.20926 0.46336,0 0.8769,-0.14449 0.41853,-0.14947 0.73243,-0.40856 0.31389,-0.25909 0.49326,-0.61783 0.18435,-0.35873 0.17438,-0.77725 h -1.3054 q 0.01,0.18933 -0.0697,0.34378 -0.0747,0.15446 -0.21425,0.26407 -0.13951,0.10962 -0.32386,0.1694 -0.18435,0.0598 -0.38863,0.0598 z"
           style="font-style:normal;font-variant:normal;font-weight:bold;font-stretch:normal;font-size:34.9819px;font-family:'Roboto Mono';-inkscape-font-specification:'Roboto Mono Bold';font-variant-ligatures:normal;font-variant-caps:normal;font-variant-numeric:normal;font-variant-east-asian:normal;fill:#082235;fill-opacity:1;stroke-width:0.255103"
           id="path957" />
        <path
           d="m 163.25667,130.11309 h -1.38513 v 1.32035 h -1.23066 v 1.0214 h 1.23066 v 2.45137 q 0,0.53312 0.13951,0.91677 0.13951,0.37866 0.3986,0.6228 0.2541,0.24913 0.61284,0.36871 0.36372,0.11459 0.80716,0.11459 0.22919,0 0.46336,-0.0249 0.23916,-0.0199 0.45839,-0.0598 0.21923,-0.0399 0.41354,-0.0996 0.19432,-0.0648 0.33881,-0.14947 l -0.13453,-0.95165 q -0.0947,0.0249 -0.22919,0.0498 -0.12954,0.0249 -0.27902,0.0448 -0.15445,0.0249 -0.32386,0.0399 -0.16442,0.0149 -0.32386,0.0149 -0.21922,0 -0.39859,-0.0498 -0.17439,-0.0498 -0.29895,-0.16941 -0.12456,-0.11459 -0.19431,-0.30891 -0.0648,-0.1993 -0.0648,-0.49326 v -2.31684 h 2.01291 v -1.0214 h -2.01291 z"
           style="font-style:normal;font-variant:normal;font-weight:bold;font-stretch:normal;font-size:34.9819px;font-family:'Roboto Mono';-inkscape-font-specification:'Roboto Mono Bold';font-variant-ligatures:normal;font-variant-caps:normal;font-variant-numeric:normal;font-variant-east-asian:normal;fill:#082235;fill-opacity:1;stroke-width:0.255103"
           id="path959" />
        <path
           d="m 170.31181,135.34466 q 0,0.12457 -0.0648,0.2292 -0.0598,0.10463 -0.18435,0.18434 -0.12955,0.0797 -0.33383,0.12955 -0.19929,0.0448 -0.46835,0.0448 -0.22421,0 -0.43845,-0.0448 -0.20927,-0.0448 -0.37369,-0.14449 -0.16442,-0.0947 -0.26905,-0.24912 -0.10463,-0.15944 -0.11958,-0.37867 h -1.32035 q 0,0.32884 0.15944,0.65768 0.16442,0.32386 0.47832,0.57797 0.31389,0.25909 0.77726,0.41852 0.46835,0.15944 1.07621,0.15944 0.55305,0 1.00147,-0.11958 0.44842,-0.12456 0.7673,-0.34379 0.31389,-0.21922 0.48329,-0.51817 0.17439,-0.30393 0.17439,-0.66267 0,-0.38863 -0.17439,-0.66765 -0.1694,-0.28399 -0.47333,-0.48329 -0.30393,-0.19432 -0.72245,-0.31888 -0.41853,-0.12456 -0.90681,-0.20428 -0.3388,-0.0498 -0.55803,-0.11459 -0.21923,-0.0698 -0.34379,-0.15446 -0.12955,-0.0797 -0.17937,-0.17937 -0.0498,-0.10463 -0.0498,-0.22421 0,-0.11958 0.0548,-0.22421 0.0598,-0.10961 0.1694,-0.18933 0.11958,-0.0897 0.30892,-0.13951 0.18933,-0.0498 0.44343,-0.0498 0.29895,0 0.50822,0.0747 0.21424,0.0747 0.3388,0.1993 0.0897,0.0947 0.13453,0.21424 0.0448,0.1146 0.0448,0.24913 h 1.38512 q 0,-0.37369 -0.16442,-0.69256 -0.16442,-0.31888 -0.47333,-0.55306 -0.3139,-0.22919 -0.76232,-0.35873 -0.44842,-0.13453 -1.01144,-0.13453 -0.5381,0 -0.96659,0.13453 -0.42849,0.13453 -0.72744,0.36372 -0.29895,0.22919 -0.45838,0.53312 -0.15944,0.30393 -0.15944,0.63775 0,0.34379 0.15446,0.60786 0.15943,0.26407 0.43845,0.46337 0.27902,0.20428 0.66765,0.34877 0.39361,0.13951 0.86695,0.23417 0.37368,0.0698 0.61782,0.13951 0.24414,0.0698 0.39361,0.14948 0.14449,0.0847 0.1993,0.17937 0.0598,0.0947 0.0598,0.21922 z"
           style="font-style:normal;font-variant:normal;font-weight:bold;font-stretch:normal;font-size:34.9819px;font-family:'Roboto Mono';-inkscape-font-specification:'Roboto Mono Bold';font-variant-ligatures:normal;font-variant-caps:normal;font-variant-numeric:normal;font-variant-east-asian:normal;fill:#082235;fill-opacity:1;stroke-width:0.255103"
           id="path961" />
      </g>
      <rect
         id="rect191"
         width="6.9525251"
         height="0.87212127"
         x="72.576302"
         y="133.01939"
         style="fill:#ffb41f;fill-opacity:1;stroke-width:0.0771776" />
    </g>
  </g>
</svg>
