<?xml version="1.0" standalone="no"?><svg xmlns="http://www.w3.org/2000/svg" viewBox="0 0 1440 320"><path fill="#D5D3EE" fill-opacity="1" d="M0,64L34.3,69.3C68.6,75,137,85,206,112C274.3,139,343,181,411,197.3C480,213,549,203,617,202.7C685.7,203,754,213,823,229.3C891.4,245,960,267,1029,240C1097.1,213,1166,139,1234,117.3C1302.9,96,1371,128,1406,144L1440,160L1440,320L1405.7,320C1371.4,320,1303,320,1234,320C1165.7,320,1097,320,1029,320C960,320,891,320,823,320C754.3,320,686,320,617,320C548.6,320,480,320,411,320C342.9,320,274,320,206,320C137.1,320,69,320,34,320L0,320Z"></path></svg>