<svg class="wave_1" viewBox="0 0 1924 342.044">
		<path id="wave_1" style="fill:#FFB41F;" d="M 0 171.022216796875 L 35.67416763305664 185.318603515625 C 71.2147216796875 199.0805511474609 142.9638824462891 228.4749908447266 213.7777709960938 199.4813842773438 C 284.9924926757813 171.022216796875 356.7416687011719 85.5111083984375 427.5555419921875 99.8074951171875 C 498.7702331542969 113.5694427490234 570.5194091796875 228.4749908447266 641.3333129882813 249.4519348144531 C 712.5480346679688 271.2305603027344 784.2971801757813 199.0805511474609 855.111083984375 171.022216796875 C 926.3258056640625 142.9638824462891 998.074951171875 156.3249969482422 1068.888916015625 192.3999938964844 C 1140.103515625 228.4749908447266 1211.852783203125 284.5916442871094 1282.666625976563 284.9924926757813 C 1353.88134765625 284.5916442871094 1425.630493164063 228.4749908447266 1496.4443359375 192.3999938964844 C 1567.6591796875 156.3249969482422 1639.408325195313 142.9638824462891 1710.22216796875 171.022216796875 C 1781.43701171875 199.0805511474609 1853.18603515625 271.2305603027344 1887.924926757813 306.3702697753906 L 1924 342.04443359375 L 1924 0 L 1888.325805664063 0 C 1852.78515625 0 1781.036010742188 0 1710.22216796875 0 C 1639.00732421875 0 1567.25830078125 0 1496.4443359375 0 C 1425.229614257813 0 1353.48046875 0 1282.666625976563 0 C 1211.451904296875 0 1139.702758789063 0 1068.888916015625 0 C 997.6741333007813 0 925.9249877929688 0 855.111083984375 0 C 783.8963623046875 0 712.147216796875 0 641.3333129882813 0 C 570.1185913085938 0 498.3694152832031 0 427.5555419921875 0 C 356.3408508300781 0 284.5916442871094 0 213.7777709960938 0 C 142.5630493164063 0 70.81388854980469 0 36.07499694824219 0 L 0 0 L 0 171.022216796875 Z">
		</path>
	</svg>