<?xml version="1.0" standalone="no"?><svg xmlns="http://www.w3.org/2000/svg" viewBox="0 0 1440 320"><path fill="#D5D3EE" fill-opacity="1" d="M0,96L15,96C30,96,60,96,90,101.3C120,107,150,117,180,138.7C210,160,240,192,270,202.7C300,213,330,203,360,197.3C390,192,420,192,450,202.7C480,213,510,235,540,234.7C570,235,600,213,630,192C660,171,690,149,720,149.3C750,149,780,171,810,160C840,149,870,107,900,96C930,85,960,107,990,133.3C1020,160,1050,192,1080,218.7C1110,245,1140,267,1170,272C1200,277,1230,267,1260,218.7C1290,171,1320,85,1350,58.7C1380,32,1410,64,1425,80L1440,96L1440,320L1425,320C1410,320,1380,320,1350,320C1320,320,1290,320,1260,320C1230,320,1200,320,1170,320C1140,320,1110,320,1080,320C1050,320,1020,320,990,320C960,320,930,320,900,320C870,320,840,320,810,320C780,320,750,320,720,320C690,320,660,320,630,320C600,320,570,320,540,320C510,320,480,320,450,320C420,320,390,320,360,320C330,320,300,320,270,320C240,320,210,320,180,320C150,320,120,320,90,320C60,320,30,320,15,320L0,320Z"></path></svg>