<?xml version="1.0" standalone="no"?><svg xmlns="http://www.w3.org/2000/svg" viewBox="0 0 1440 320"><path fill="#D5D3EE" fill-opacity="1" d="M0,96L15,117.3C30,139,60,181,90,202.7C120,224,150,224,180,202.7C210,181,240,139,270,149.3C300,160,330,224,360,234.7C390,245,420,203,450,181.3C480,160,510,160,540,154.7C570,149,600,139,630,160C660,181,690,235,720,240C750,245,780,203,810,181.3C840,160,870,160,900,133.3C930,107,960,53,990,58.7C1020,64,1050,128,1080,149.3C1110,171,1140,149,1170,149.3C1200,149,1230,171,1260,176C1290,181,1320,171,1350,170.7C1380,171,1410,181,1425,186.7L1440,192L1440,0L1425,0C1410,0,1380,0,1350,0C1320,0,1290,0,1260,0C1230,0,1200,0,1170,0C1140,0,1110,0,1080,0C1050,0,1020,0,990,0C960,0,930,0,900,0C870,0,840,0,810,0C780,0,750,0,720,0C690,0,660,0,630,0C600,0,570,0,540,0C510,0,480,0,450,0C420,0,390,0,360,0C330,0,300,0,270,0C240,0,210,0,180,0C150,0,120,0,90,0C60,0,30,0,15,0L0,0Z"></path></svg>