<?xml version="1.0" standalone="no"?><svg xmlns="http://www.w3.org/2000/svg" viewBox="0 0 1440 320"><path fill="#D5D3EE" fill-opacity="1" d="M0,32L34.3,74.7C68.6,117,137,203,206,208C274.3,213,343,139,411,144C480,149,549,235,617,234.7C685.7,235,754,149,823,149.3C891.4,149,960,235,1029,250.7C1097.1,267,1166,213,1234,197.3C1302.9,181,1371,203,1406,213.3L1440,224L1440,320L1405.7,320C1371.4,320,1303,320,1234,320C1165.7,320,1097,320,1029,320C960,320,891,320,823,320C754.3,320,686,320,617,320C548.6,320,480,320,411,320C342.9,320,274,320,206,320C137.1,320,69,320,34,320L0,320Z"></path></svg>